<svg width="100" height="100" viewBox="0 0 100 100" fill="none" xmlns="http://www.w3.org/2000/svg">
<path d="M88.9667 45.925L88.9833 46.1917L89.4583 46.2167L88.9667 45.925Z" fill="#7ED0E0"/>
<path d="M63.0167 82.2333L61.3917 84.85L61.6083 84.8167H65.5917L69.1083 82.4667L74.025 78.4833L75.9083 75.4417L78.25 72.8583L79.425 71.2167L81.2917 70.9833L79.1917 75.2L76.375 78.25L72.3833 82.2333L67.7 85.9833L65.825 87.275L68.1667 86.6917L71.45 84.5833L75.6667 82L79.8917 79.1833L80.825 77.975L81.5333 76.375L82.2333 72.8583L82 69.1083L80.3583 66.2917L77.7833 64.65L74.5 63.2417L72.9583 62.9167L72.625 66.2917L71.9167 69.1083L69.1083 70.5167H64.65V75.4417L63.0167 82.2333Z" fill="#7ED0E0"/>
<path d="M32.3834 18.85L32.95 18.6167L32.5334 18.7L32.3834 18.85Z" fill="#7ED0E0"/>
<path d="M92.65 60.325L93.5167 57.2083L93.4417 56.7917L92.65 60.325Z" fill="#7ED0E0"/>
<path d="M58.0917 35.5833L58.1417 35.4917L57.9333 35.725L58.0917 35.5833Z" fill="#7ED0E0"/>
<path d="M59.65 48.1833L63.7084 48.0083L63.3917 48.775L64.65 48.8833V42.85L63.4834 35.5833L63.2917 35.0833L60.9 34.875L59.4167 34.9417L58.325 36.5167L56.9167 38.6333L54.8084 40.0333L53.9584 40.1583L57.85 44.725L59.65 48.1833Z" fill="#7ED0E0"/>
<path d="M43.3167 18L44.25 18.5583L44.1333 17.4167L42.1583 17.7833L42.525 18.3417L43.3167 18Z" fill="#7ED0E0"/>
<path d="M84.5834 64.65L81.0667 62.075L79.8417 61.2167L78.7584 62.7L79.425 63.0083L83.6417 67.2333L84.8167 69.575L85.3917 73.1833L85.9917 72.625L85.75 69.8083L85.5167 67.2333L85.9084 67.125L84.6 64.65H84.5834Z" fill="#7ED0E0"/>
<path d="M81.95 47.0667L87.1584 44.6833V42.15L86.925 41.1667L85.75 40.2667L82 38.8667L80.15 38.225L81.0667 40.5083L81.95 47.0667Z" fill="#7ED0E0"/>
<path d="M43.3167 24.0917L44.725 24.8L46.1334 23.625L48.0084 24.8L48.475 26.9083L49.4167 27.6083L49.65 25.2667L49.5417 24.7083L44.4917 20.8167L44.3167 19.1167L43.0834 21.9833L43.3167 24.0917Z" fill="#7ED0E0"/>
<path d="M76.375 54.3417L75.2 48.9417L71.6834 41.9167L65.25 35.2583L65.225 35.25L65.825 37.4583L66.2917 44.4917L66.7334 49.5L68.7167 50.2917L68.875 48.7083L70.0417 50.1167H73.0917L74.2667 51.7583L74.025 56.2167L73.2667 60.5917L75.825 61.35L76.1417 60.2L76.375 54.3417Z" fill="#7ED0E0"/>
<path d="M82.9417 34.375L82.9334 34.4083L81.0667 34.175L78.2501 32.0667L77.05 30.4667L79.0834 35.55L85.5751 37.7083L82.9417 34.375Z" fill="#7ED0E0"/>
<path d="M61.55 32.1667L60.7084 33.15L62.5084 33L62.4834 32.925L61.55 32.1667Z" fill="#7ED0E0"/>
<path d="M38.575 9.96667L36.5167 11.4333L33.7084 13.7833L31.125 16.5917L28.0834 20.3417L26.8 22.3917L27.1417 22.2167L29.7167 21.75V22.6833L25.5 24.8L25.0834 25.025L26.0667 26.1833L29.0167 23.625L30.0417 22.7333L31.2334 20.0083L30.6584 20.575V18.7L33.7084 17.0583L36.75 15.8917L38.8667 16.125L38.2334 16.6333L40.4417 16.9083L40.7417 16.825L44.2167 16.2167L45.125 15.5333L44.725 15.1833L41.4417 14.7167L38.625 14.0167L38.8084 13.95L38.0917 13.1167L37.225 13.3083L37.4584 11.9L42.85 11.2L45.6667 10.7333L48.0084 11.9L47.3084 13.8917L47.7667 13.55L51.3084 13.2583L49.1834 11.6667L45.425 9.55833L49.1834 9.325L51.2917 11.2L54.4417 13.225L59.9667 14.25L62.1084 15.0917L63.95 15.1833L70.75 16.5917L74.4667 17.1917L71.6834 15.425L66.0584 13.3083L59.725 10.7333L58.2834 9.55L50.35 8.39167L48.1 8.30833L44.025 9.09167L38.575 9.96667Z" fill="#7ED0E0"/>
<path d="M31.5917 12.1417L25.7333 14.7167L23.6833 16.375L22.6833 18L22.925 22.45L23.9917 23.725L25.5 20.1083L30.1917 14.4833L33 11.9L33.775 11.35L31.5917 12.1417Z" fill="#7ED0E0"/>
<path d="M76.375 28.7833L76.9 30.1L78.25 28.0833L79.8917 25.7333L78.7167 22.6833L77.075 21.05L73.0917 18.9333L66.7667 17.3L66.4333 17.2833L70.275 20.575L76.375 28.7833Z" fill="#7ED0E0"/>
<path d="M62.0001 31.6417L61.55 32.1667L62.4834 32.925L62.0001 31.6417Z" fill="#CCEAEE"/>
<path d="M78.7167 60.4333L79.1917 58.325L79.6583 55.7417L80.3583 51.7583L79.8917 48.0083L81.95 47.0667L81.0667 40.5083L80.15 38.225L76.6083 36.9917L70.9833 35.8167L66.2917 35.35L65.25 35.2583L71.6833 41.9167L75.2 48.9417L76.375 54.3417L76.1417 60.2L75.825 61.35L75.9083 61.375L78.7583 62.7L79.8417 61.2167L78.7167 60.4333Z" fill="#CCEAEE"/>
<path d="M60.1834 26.225L59.925 25.425L57.3834 27.8417L60.1834 26.225Z" fill="#CCEAEE"/>
<path d="M76.8417 30.1917L76.9 30.1L76.375 28.7833L70.275 20.575L66.4333 17.2833L62.2167 17.0833L63.7083 18L66.2917 18.7L66.0583 20.3417L62.3083 23.1583L61.3583 24.0667L61.8667 25.2417L64.65 23.625L66.0583 24.5667L66.7667 28.55L65.125 29.7167L63.675 30.0833L64.4167 32.3L64.5583 32.8167L65.125 32.7667L71.9167 33.7083L77.075 34.875L79.0833 35.55L77.05 30.4667L76.8417 30.1917Z" fill="#CCEAEE"/>
<path d="M54.4417 13.225L54.575 13.3083L55.925 14.7667L62.1084 15.0917L59.9667 14.25L54.4417 13.225Z" fill="#CCEAEE"/>
<path d="M45.6333 15.9667L45.125 15.5333L44.2167 16.2167L45.6333 15.9667Z" fill="#CCEAEE"/>
<path d="M47.3084 13.8917L46.65 15.7833L48.7084 15.425L53.2584 14.9167L51.9917 13.7833L51.3084 13.2583L47.7667 13.55L47.3084 13.8917Z" fill="#CCEAEE"/>
<path d="M44.4917 18.7L44.3167 19.1167L44.4917 20.8167L49.5417 24.7083L49.1834 22.925L51.2917 20.575L52.2334 18.7L53.8667 17.7667L53.9334 18.5333L54.8084 17.5333L55.3917 17.325L55.025 16.825H47.3084L44.1334 17.4167L44.25 18.5583L44.4917 18.7Z" fill="#CCEAEE"/>
<path d="M25.2667 72.8333L20.8083 76.85L20.5917 78.475L24.325 81.7667L29.0167 84.8167L36.2833 87.1583L39.85 88.4583L34.6417 83.875L30.1917 79.6583L27.1417 75.9083L25.2667 72.8333Z" fill="#26BCD6"/>
<path d="M9.0917 63.4833L9.52504 64.4L11.4334 60.9083L14.4834 57.85L16.125 58.7917L15.4167 67.4667H17.7667L19.1667 68.6417L19.6417 71.2167L19.875 74.9667L23.625 70.9833L24.1667 70.5917L22.45 65.825L20.8084 61.6083L19.875 56.9167L19.1667 51.7583L18.7334 48.2333L16.125 50.1167L13.075 52.225L9.55837 55.5083L7.35004 57.7167L7.45004 58.325L9.0917 63.4833Z" fill="#26BCD6"/>
<path d="M19.875 27.8417L14.4834 31.6L10.2 34.35L9.6917 35.7667L12.6084 37.225L12.8417 38.6333L11.9 41.675L11.4334 45.1917L11.2 46.3667L9.55836 46.8333L8.38336 47.225L7.07503 48.1L6.70836 48.65L6.50836 50.1167L6.7417 53.8667L7.05836 55.8417L9.7917 52.9333L14.4834 48.475L18.5084 45.6L18.9334 40.2667L19.6417 35.5833L20.8084 32.5333L21.2834 34.4083L21.05 36.9917L20.3417 41.2083L20.5834 44.3167L23.875 42.5L23.1584 41.675L22.2167 38.1583L23.1584 34.6417L23.3917 32.7667L22.6834 31.3583L23.3917 29.25L25.5 26.675L26.0667 26.1833L25.0834 25.025L19.875 27.8417Z" fill="#26BCD6"/>
<path d="M22.6833 18L23.6833 16.375L20.8083 18.7L17.2917 22.925L13.775 27.375L11.9667 30.8833L13.775 29.25L16.825 27.6083L21.5167 25.0333L23.9583 23.8083L23.9917 23.725L22.925 22.45L22.6833 18Z" fill="#26BCD6"/>
<path d="M41.4417 43.3167L40.5083 44.9583L40.2667 46.6L42.15 47.5417L43.3167 46.8333L44.725 44.9583L46.6 44.725L48.2417 45.9L49.1833 47.775L48.95 48.9417L48.0083 50.1167L48.2417 51.0583L49.4167 51.9917L49.2833 52.375L50.6833 51.7L50.5833 51.2917L54.8083 49.65L58.325 48.2417L59.65 48.1833L57.85 44.725L53.9583 40.1583L53.1667 40.2667L53.4 42.3833L52.6917 44.9583L51.05 45.425L50.1167 44.4917L49.4167 42.85L49.1833 41.2083L47.7667 40.2667L45.1917 41.2083L42.6167 42.85L42.3833 42.0333L40.9083 42.875L41.4417 43.3167Z" fill="#26BCD6"/>
<path d="M61.1333 72.625L59.2583 74.9666L58.0917 77.0833L58.325 79.1833L56.9167 81.3L53.6333 83.4083L51.05 85.2833L49.8833 84.5833L49.65 81.0583L49.775 80.9833L49.2333 78.4583L49.1833 78.7166L48.0083 75.9083V69.575L45.6667 68.4083L41.9083 66.2917L40.2667 64.8833L40.3667 64.4417L39.1 64.8833L34.6417 67.2333L29.9583 69.575L27.4833 71.2667L29.0167 73.5666L32.0667 77.3166L35.1167 80.6L38.625 83.875L41.4417 85.75L44.25 86.925H47.0667L49.8833 86.2166L55.275 85.05L56.4417 83.4083L58.325 80.6L59.725 79.6583L58.0917 83.6417L56.9167 85.75L58.7917 85.2833L61.3917 84.85L63.0167 82.2333L64.65 75.4416V70.5167H64.1833L63.7083 72.1583L61.6083 76.85L59.725 78.25L61.3667 73.8L62.2333 71.2166L60.7167 72.0417L61.1333 72.625Z" fill="#26BCD6"/>
<path d="M33.625 48.4L33.475 48.525V49.1833L32.3 48.475L30.8917 46.3667L30.5584 45.6917L29.6084 44.625L29.45 44.6917L29.0917 46.8333L29.7167 48.7083L30.1917 50.35L28.55 50.825L26.9084 48.9417L24.8 46.1333V45.1917L25.6834 45.05L25.3334 44.075L20.775 46.8083L20.8084 47.3L21.2834 52.9333L21.9834 57.6167L23.1584 61.375L24.5667 65.5917L26.225 69.1L27.8417 67.9333L32.5334 65.5917L37.4584 63.0083L41.1834 61.55L42.6167 57.6167L44.1917 54.0083L42.4084 53.2L41.675 52.9333L34.6417 50.35L35.1167 49.8833L33.625 48.4Z" fill="#26BCD6"/>
<path d="M86.1501 37.9L85.9917 37.225L85.05 33.475L83.4084 30.1917L81.2917 27.375L79.425 29.9583L81.2917 32.0667L83.175 33.2417L82.9417 34.375L85.5751 37.7083L86.1501 37.9Z" fill="#73C167"/>
<path d="M90.3 46.25L91.1417 45.1917L89.7333 43.3167L88.7 42.525L88.9667 45.925L89.4583 46.2167L90.3 46.25Z" fill="#73C167"/>
<path d="M91.85 40.2667L90.4417 35.8167L90.3584 35.6417L88.1 36.2833L88.4167 39.3417L89.5 40.0333L91.975 42.1583L91.85 40.2667Z" fill="#73C167"/>
<path d="M88.325 31.3583L85.9917 27.375L82.9334 24.325L80.6 22.1667L81.7667 24.8L84.1084 28.3167L86.225 32.0667L87.1584 34.4083L89.5667 33.9833L88.325 31.3583Z" fill="#73C167"/>
<path d="M7.91669 67L8.04169 67.2167L7.95002 66.9583L7.91669 67Z" fill="#54B948"/>
<path d="M12.375 63.7167L11.6667 65.5917L10.7584 67.0167L11.2 67.9333L14.7167 73.5667L17.7667 76.1V71.2167L17.5334 70.0417L15.8917 69.1083H14.25L13.5417 67.9333L13.775 61.6083L12.375 63.7167Z" fill="#54B948"/>
<path d="M93.25 55.7417L92.0833 51.525L92.225 48.8333L91.1416 48.2417L90.2083 46.3667L90.3 46.25L89.4583 46.2166L88.9833 46.1917L89.0333 46.8333L88.5667 52.4583L87.8583 56.2167L85.75 62.075V59.7333L86.925 52.4583L87.15 46.8083L85.9917 47.0667L83.175 48.9417L82.7083 50.825L81.7667 55.0417L81.0667 59.7333L83.175 60.9083L85.05 63.0083L85.9917 64.4167L84.6 64.65L85.9083 67.125L87.1583 66.7667L87.3916 69.575L89.9666 65.5917L90.9083 61.8417L91.375 58.325L92.55 60.4333L92.5166 60.95L92.65 60.325L93.4417 56.7917L93.25 55.7417Z" fill="#54B948"/>
<path d="M46.4917 89.4L48.0084 89.5083L54.575 89.2667L61.6084 88.3333L63.95 87.7417V86.2167L60.2 86.6917L58.0917 87.625H55.7417L54.1 86.925L48.7084 87.625L45.6667 88.5667L46.4917 89.4Z" fill="white"/>
<path d="M9.32499 42.6167L10.025 40.2667V38.1583L8.93332 37.8667L8.14999 40.0333L7.21666 44.9583L7.03333 46.275L7.68332 46.1333L8.85833 44.9583L9.32499 42.6167Z" fill="#54B948"/>
<path d="M7.45001 47.5417L7.07501 48.1L8.38335 47.225L7.45001 47.5417Z" fill="#54B948"/>
<path d="M63.0167 49.65H59.2583L55.7417 50.825L51.05 53.1667L50.6833 51.7L49.2833 52.375L48.95 53.4L46.1333 51.7583L45.1917 50.5833L45.425 48.9417L47.0667 48.0083L45.1917 46.8333L44.4917 48.2417L42.85 49.65L40.5083 48.7083L38.625 47.0667V44.4917L38.7833 44.2333L33.625 48.4L35.1167 49.8833L36.2833 48.7083L38.1583 49.65L41.9083 51.0583L45.425 53.1667L46.1333 55.5083L43.7833 58.325L43.2 60.75L44.025 60.4333L50.1167 59.7333H54.3333L52.6917 61.1333L44.4917 63.0083L42.4917 63.7083L42.3833 64.1833L44.9583 65.5917L47.0667 67.2333L49.65 68.4083L50.1167 70.75L49.4167 72.8583L49.65 76.375L49.2333 78.4583L49.775 80.9833L50.8167 80.3583L51.7583 83.175L53.1667 82L55.0417 80.6L55.7417 79.1833L55.975 76.85L56.9167 74.7333L58.325 73.0917L59.9667 70.9833L60.7167 72.0417L62.2333 71.2167L63.0167 68.875L63.7083 64.1833L64.1417 61.6083H62.3083L59.725 61.8417V60.4333L64.4167 59.8167L64.65 52.4583V48.8833L63.3917 48.775L63.0167 49.65Z" fill="#54B948"/>
<path d="M64.5417 69.2583L66.2917 69.575L69.1084 68.4083L70.75 66.525L71.15 62.525L67.2334 61.6083H66.075L65.5917 65.5917L64.5417 69.2583Z" fill="#54B948"/>
<path d="M67 52.4583L66.525 57.85L66.2917 59.8083L71.4667 60.1667L72.1584 55.5083L71.9167 52.225L70.275 51.7583L68.6417 51.0583L68.7167 50.2917L66.7334 49.5L67 52.4583Z" fill="#54B948"/>
<path d="M44.25 53.8667L42.4083 53.2L44.1917 54.0083L44.25 53.8667Z" fill="#54B948"/>
<path d="M40.5083 13.3083L43.55 13.55L45.1917 14.0167L46.3667 12.6083L43.7833 12.375H41.4417L38.0917 13.1167L38.8083 13.95L40.5083 13.3083Z" fill="#54B948"/>
<path d="M37.6917 17.0583L34.875 18.2333L32.95 18.6167L32.3834 18.85L31.2334 20.0083L30.0417 22.7333L32.7667 20.3417L33 21.5167L30.1917 24.8L27.375 26.9083L24.8 30.8917L25.7334 32.0667V34.175L25.0334 36.2833L24.5667 39.1L24.725 42.1167L29.0167 40.2667L34.4084 38.6333L25.3334 44.075L25.6834 45.05L26.2 44.9583L26.9084 45.9L27.8417 43.3167L30.425 42.6167L31.8334 43.7917L33 46.1333L33.475 48.0083V48.525L33.625 48.4L38.7834 44.2333L40.0334 42.15L40.9084 42.875L42.3834 42.0333L42.15 41.2083L45.6667 39.1L48.7084 38.1583L50.5834 38.6333V40.7417L51.2917 43.3167L51.7584 41.2083L52.4584 39.1L55.275 38.1583L57.9334 35.725L58.1417 35.4917L58.4417 34.9833L55.275 35.1167L49.65 36.05L45.6667 36.7583L40.0334 38.1583L40.975 36.2833L47.7667 34.4083L54.575 33.475L59.4501 33.25L59.725 32.7667L61.65 30.7083L61.3667 29.9583L60.65 27.6917L57.85 29.4833L55.7417 31.125L54.3334 29.4833L57.3834 25.7333L59.1917 23.7667L56.9167 19.4083L55.3917 17.325L54.8084 17.5333L53.9334 18.5333L54.1 20.3417L51.7584 23.1583L51.525 26.675L50.8167 28.7833L49.1834 29.7167L47.0667 28.7833L46.3667 26.4417L44.725 26.675L42.6167 26.4417L41.4417 25.2667L40.975 23.625L41.2084 21.75L41.9084 20.1083L41.675 18.7L42.525 18.3417L42.1584 17.7833L40.975 18L38.3917 18.7L37.225 17.7667L40.4417 16.9083L38.2334 16.6333L37.6917 17.0583Z" fill="#49A942"/>
<path d="M62.4 26.4917L62.775 27.375L63.2167 28.7L63.7084 27.375L63.4834 25.7333L62.4 26.4917Z" fill="#49A942"/>
<path d="M61.1333 18.4667L59.7833 16.9667L57.875 16.875L59.9667 20.8167L60.65 22.4167L63.4833 20.3417L61.1333 18.4667Z" fill="#49A942"/>
<path d="M29.0167 46.6L29.0917 46.8333L29.45 44.6917L28.7833 44.9583L29.0167 46.6Z" fill="#49A942"/>
<path d="M29.6083 44.625L30.5583 45.6917L29.9583 44.4917L29.6083 44.625Z" fill="#49A942"/>
<path d="M95.1333 41.675L93.725 36.5167L91.6167 31.8333L88.1084 25.7417L81.3083 18.9417L76.3917 15.425L70.7667 12.8417L65.1417 10.7333L57.1667 8.62499L58.3 9.54999L59.75 10.7333L66.0834 13.3083L71.7084 15.4167L74.4917 17.1833L70.775 16.5833L63.975 15.175L62.1417 15.075L55.9584 14.75L54.5834 13.3083L54.45 13.225L51.3 11.2L49.1834 9.325L45.4334 9.55833L49.1834 11.6667L51.3084 13.2583L52 13.775L53.2584 14.9167L48.7167 15.425L46.6584 15.7917L47.325 13.9L48.0167 11.9167L45.6667 10.7333L42.85 11.2L37.4584 11.9L37.225 13.3083L38.1 13.1167L41.45 12.375H43.7917L46.375 12.6083L45.2 14.0167L43.5584 13.55L40.5084 13.3167L38.8084 13.95L38.6334 14.0167L41.45 14.7167L44.7333 15.1833L45.1334 15.525L45.6417 15.9583L44.225 16.2083L40.75 16.825L40.45 16.9L37.2333 17.7583L38.4084 18.6917L40.9833 17.9917L42.1667 17.775L44.1417 17.4083L47.3167 16.825H55.0334L55.4 17.325L56.925 19.4083L59.2 23.7667L57.3917 25.725L54.3417 29.475L55.75 31.1167L57.8583 29.475L60.65 27.675L61.375 29.9417L61.6584 30.6917L59.7333 32.75L59.45 33.2333L54.575 33.4583L47.775 34.3917L40.975 36.2667L40.0417 38.1417L45.675 36.7333L49.6584 36.025L55.2834 35.0917L58.45 34.9583L58.1584 35.4667L58.1 35.5583L57.95 35.7L55.2917 38.1333L52.475 39.0667L51.7667 41.175L51.3 43.2833L50.5917 40.7V38.5917L48.7167 38.125L45.6667 39.1L42.15 41.2083L42.3834 42.0333L42.6167 42.8583L45.2 41.2167L47.775 40.2833L49.1834 41.2167L49.4167 42.8583L50.125 44.5L51.0584 45.4333L52.7 44.9667L53.4 42.3917L53.1667 40.2833L53.9667 40.1667L54.8084 40.0417L56.9167 38.6333L58.325 36.525L59.4167 34.95L60.9 34.8917L63.2917 35.0917L63.475 35.5917L64.65 42.8583V52.4667L64.4167 59.825L59.725 60.4333V61.8417L62.3083 61.6083H64.1417L63.7084 64.1833L63.0083 68.875L62.225 71.2167L61.3583 73.8L59.725 78.25L61.6 76.85L63.7084 72.1583L64.175 70.5167H69.1L71.9083 69.1083L72.6083 66.3L72.95 62.925L74.4833 63.2583L77.7667 64.6667L80.3417 66.3083L81.9833 69.1167L82.2167 72.8667L81.5167 76.3833L80.8083 77.9833L79.875 79.1917L75.6667 82L71.45 84.5833L68.1667 86.6917L65.825 87.275L67.7 85.9833L72.3833 82.2333L76.375 78.25L79.1917 75.2083L81.3 70.9917L79.425 71.225L78.25 72.8583L75.9083 75.4417L74.0333 78.4833L69.1167 82.4667L65.6 84.8167H61.6167L61.4084 84.85L58.8083 85.2833L56.9167 85.75L58.0917 83.6417L59.7333 79.6583L58.325 80.6L56.45 83.4167L55.2834 85.0583L49.8917 86.2333L47.075 86.9417H44.2584L41.45 85.7667L38.6334 83.8917L35.1167 80.6083L32.0667 77.325L29.0167 73.575L27.4834 71.275L29.95 69.5833L34.6417 67.2417L39.0917 64.8917L40.3583 64.45L40.2584 64.8917L41.9 66.3L45.65 68.4083L47.9917 69.575V75.9083L49.1667 78.7167L49.2167 78.4583L49.6334 76.375L49.4 72.8583L50.1 70.75L49.6334 68.4083L47.05 67.2333L44.9417 65.5917L42.3583 64.1833L42.475 63.7083L44.475 63.0167L52.675 61.1417L54.3167 59.7333H50.1L44 60.4333L43.1834 60.75L43.7667 58.3167L46.1167 55.5L45.4084 53.1583L41.8917 51.05L38.1417 49.6417L36.2667 48.7L35.0917 49.875L34.625 50.3417L41.6584 52.925L42.3834 53.1917L44.2333 53.8667L44.1667 54.0083L42.5834 57.6167L41.1584 61.55L37.4334 63.0167L32.5084 65.5917L27.8167 67.9417L26.2 69.1083L24.5334 65.5917L23.125 61.375L21.95 57.625L21.25 52.9417L20.7834 47.3083L20.75 46.8167L25.3084 44.075L34.3834 38.625L28.9917 40.2667L24.7 42.1083L24.5417 39.0917L25.0084 36.275L25.7167 34.1667V32.0583L24.7834 30.8833L27.3584 26.9L30.175 24.7917L32.9834 21.5083L32.75 20.3333L30.0167 22.725L29 23.6167L26.05 26.175L25.4834 26.6667L23.3917 29.25L22.6917 31.3583L23.3917 32.7667L23.1584 34.6417L22.225 38.1583L23.1584 41.675L23.875 42.5L20.5834 44.3167L20.3417 41.2167L21.0417 37L21.275 34.4167L20.8084 32.5417L19.6417 35.5833L18.9417 40.275L18.5167 45.6L14.4917 48.475L9.80002 52.9333L7.05835 55.8417L6.75002 53.875L6.51669 50.125L6.71669 48.65L7.08335 48.1083L7.45835 47.55L8.40002 47.2333L9.57502 46.8417L11.2167 46.375L11.45 45.2L11.9167 41.6833L12.8584 38.6333L12.625 37.225L9.70835 35.7667L10.2167 34.35L14.5 31.6L19.8917 27.85L25.1 25.025L25.5167 24.8L29.7334 22.6917V21.75L27.15 22.2167L26.8084 22.3833L28.0917 20.3417L31.1417 16.5917L33.725 13.775L36.5417 11.4333L38.5917 9.96666L44.0417 9.08333L48.1167 8.29999L50.1334 7.90833L43.3334 7.20833L36.3 8.38333L29.7334 10.2583L25.5 12.375L21.2834 15.1917L17.0667 18.7083L12.6084 24.3333L10.0334 28.0833L7.45002 33.2417L5.57502 37.9333L4.40835 44.2667L4.16669 50.1167L4.86669 57.3833L6.74169 63.7167L7.94169 66.9667L8.03335 67.225L9.08335 70.05L12.1334 74.975L16.1167 79.6667L20.5667 83.65L26.1917 87.1667L32.05 89.5167L38.6167 91.3917L45.6584 92.5583L52.225 92.7917L59.0167 92.0917L66.9917 89.9833L72.15 88.1083L78.4833 83.8917L84.1083 79.2L87.1583 75.2167L90.9083 68.8917L92.3167 63.7333L92.5083 60.9667L92.5417 60.45L91.3667 58.3417L90.9 61.8583L89.9584 65.6083L87.3833 69.5917L87.15 66.7833L85.8917 67.1417L85.5 67.25L85.7334 69.825L85.9667 72.6417L85.3667 73.2L84.7917 69.5917L83.6167 67.25L79.4 63.025L78.7333 62.7167L75.8833 61.3833L75.8 61.3583L73.2417 60.6083L74 56.225L74.2333 51.7667L73.0583 50.125H70.0083L68.8334 48.7167L68.675 50.2917L68.6 51.0583L70.2417 51.7583L71.8833 52.225L72.1167 55.5083L71.425 60.1667L66.25 59.8083L66.4833 57.85L66.9584 52.4583L66.6917 49.5L66.25 44.4917L65.7834 37.4583L65.1833 35.2583H65.2084L66.25 35.35L70.9333 35.8167L76.5583 36.9917L80.1 38.225L81.95 38.8667L85.7 40.275L86.875 41.175L87.1084 42.15V44.6917L81.9 47.075L79.8417 48.0167L80.3083 51.7667L79.6083 55.75L79.1417 58.3333L78.675 60.4417L79.8 61.2333L81.0167 62.0833L84.5333 64.6667H84.5583L85.9417 64.4333L85 63.025L83.175 60.9167L81.0667 59.7417L81.7667 55.05L82.7084 50.8333L83.175 48.9583L85.9917 47.0833L87.1583 46.825L86.9333 52.475L85.7583 59.7333V62.075L87.8667 56.2167L88.5667 52.4667L89.0333 46.8417L88.9834 46.2L88.9667 45.9333L88.7084 42.5333L89.7417 43.325L91.15 45.2L90.3083 46.25L90.2167 46.3667L91.1583 48.2417L92.2417 48.8333L92.1 51.525L93.2667 55.7417L93.45 56.7833L93.525 57.2L93.975 59.7167L95.3833 53.15L95.85 47.0583L95.1333 41.675ZM14.25 69.1083H15.8917L17.5334 70.05L17.7667 71.225V76.1083L14.7167 73.5667L11.2 67.9417L10.7667 67.0167L11.6667 65.5917L12.3667 63.7167L13.775 61.6083L13.5417 67.9417L14.25 69.1083ZM54.1 86.925L55.7417 87.625H58.0917L60.2 86.6833L63.95 86.2167V87.7417L61.6083 88.325L54.575 89.2667L48.0084 89.5L46.4917 89.3917L45.6584 88.5583L48.7084 87.6167L54.1 86.925ZM30.1834 79.6583L34.6417 83.8833L39.85 88.4667L36.2834 87.1667L29.0167 84.825L24.325 81.775L20.5917 78.475L20.8084 76.85L25.2667 72.8333L27.1417 75.9L30.1834 79.6583ZM9.55835 55.5083L13.075 52.225L16.125 50.1167L18.7334 48.2333L19.1667 51.7583L19.875 56.9167L20.8084 61.6083L22.45 65.825L24.1667 70.5917L23.625 70.9833L19.875 74.9667L19.6417 71.2167L19.1667 68.6333L17.7584 67.4583H15.4167L16.1167 58.7833L14.475 57.8417L11.425 60.8917L9.51669 64.3917L9.08335 63.475L7.44169 58.3167L7.35002 57.7083L9.55835 55.5083ZM7.03335 46.275L7.21669 44.9583L8.15002 40.0333L8.93335 37.8583L10.025 38.1583V40.2667L9.32502 42.6083L8.85835 44.95L7.68335 46.125L7.03335 46.275ZM33 11.9L30.1834 14.4833L25.5 20.1083L23.9917 23.725L23.9584 23.8083L21.5167 25.0333L16.825 27.6167L13.775 29.25L11.9584 30.8833L13.775 27.375L17.2917 22.9167L20.8084 18.7L23.6834 16.375L25.7334 14.7167L31.5917 12.1417L33.7667 11.35L33 11.9ZM67.2333 61.6083L71.15 62.525L70.75 66.525L69.1083 68.4L66.2917 69.5667L64.5417 69.25L65.5917 65.5833L66.075 61.6L67.2333 61.6083ZM86.225 32.0667L84.1167 28.3167L81.775 24.8L80.6083 22.175L82.95 24.3333L86 27.3833L88.3417 31.3667L89.5834 33.9917L87.175 34.4167L86.225 32.0667ZM59.925 25.425L60.175 26.225L57.3834 27.85L59.925 25.425ZM59.9667 20.8167L57.8833 16.875L59.7834 16.9667L61.1417 18.475L63.4833 20.35L60.65 22.4167L59.9667 20.8167ZM63.2167 28.7L62.775 27.375L62.4 26.4917L63.4833 25.7333L63.7167 27.375L63.2167 28.7ZM60.7 33.15L61.55 32.1667L62 31.6417L62.4833 32.925L62.5083 32.9917L60.7 33.15ZM79.0834 35.55L77.0834 34.8833L71.9167 33.7083L65.1167 32.775L64.55 32.825L64.4167 32.3083L63.675 30.0917L65.1167 29.7333L66.7583 28.5583L66.05 24.575L64.6417 23.6417L61.8667 25.25L61.3583 24.0667L62.3083 23.1583L66.0583 20.3417L66.2917 18.7L63.7084 18L62.2167 17.0833L66.425 17.2833L66.7583 17.3L73.0917 18.9417L77.075 21.05L78.7167 22.6917L79.8917 25.7417L78.25 28.0833L76.9 30.1L76.8417 30.1917L77.05 30.4667L78.25 32.0667L81.0667 34.175L82.9417 34.4083L82.95 34.375L83.1833 33.2417L81.3083 32.075L79.4333 29.9667L81.3083 27.3833L83.4167 30.2L85.0583 33.4833L86 37.2333L86.1667 37.9167L85.5917 37.725L79.0834 35.55ZM89.5 40.0333L88.4167 39.3417L88.1 36.2833L90.3584 35.6417L90.4417 35.8167L91.85 40.275L91.9834 42.1667L89.5 40.0333Z" fill="black"/>
<path d="M55.7417 50.825L59.2584 49.65H63.0167L63.3917 48.775L63.7084 48.0083L59.65 48.1833L58.325 48.2417L54.8084 49.65L50.5834 51.2917L50.6834 51.7L51.05 53.1667L55.7417 50.825Z" fill="black"/>
<path d="M49.8834 84.5833L51.05 85.2833L53.6334 83.4083L56.9167 81.3L58.325 79.1833L58.0917 77.0833L59.2584 74.9667L61.1334 72.625L60.7167 72.0417L59.9667 70.9833L58.325 73.0917L56.9167 74.7333L55.975 76.85L55.7417 79.1833L55.0417 80.6L53.1667 82L51.7584 83.175L50.8167 80.3583L49.775 80.9833L49.65 81.0583L49.8834 84.5833Z" fill="black"/>
<path d="M24.8 46.1333L26.9084 48.9417L28.55 50.825L30.1917 50.35L29.7167 48.7083L29.0917 46.8333L29.0167 46.6L28.7834 44.9583L29.45 44.6917L29.6084 44.625L29.9584 44.4917L30.5584 45.6917L30.8917 46.3667L32.3 48.475L33.475 49.1833V48.525V48.0083L33 46.1333L31.8334 43.7917L30.425 42.6167L27.8417 43.3167L26.9084 45.9L26.2 44.9583L25.6834 45.05L24.8 45.1917V46.1333Z" fill="black"/>
<path d="M32.5333 18.7L32.95 18.6167L34.875 18.2333L37.6917 17.0583L38.2333 16.6333L38.8667 16.125L36.75 15.8917L33.7083 17.0583L30.6583 18.7V20.575L31.2333 20.0083L32.3833 18.85L32.5333 18.7Z" fill="black"/>
<path d="M52.2334 18.7L51.2917 20.575L49.1834 22.925L49.5417 24.7083L49.65 25.2667L49.4167 27.6083L48.475 26.9083L48.0084 24.8L46.1334 23.625L44.725 24.8L43.3167 24.0917L43.0834 21.9833L44.3167 19.1167L44.4917 18.7L44.25 18.5583L43.3167 18L42.525 18.3417L41.675 18.7L41.9084 20.1083L41.2084 21.75L40.975 23.625L41.4417 25.2667L42.6167 26.4417L44.725 26.675L46.3667 26.4417L47.0667 28.7833L49.1834 29.7167L50.8167 28.7833L51.525 26.675L51.7584 23.1583L54.1 20.3417L53.9334 18.5333L53.8667 17.7667L52.2334 18.7Z" fill="black"/>
<path d="M38.625 47.0667L40.5083 48.7083L42.85 49.65L44.4917 48.2417L45.1917 46.8333L47.0667 48.0083L45.425 48.9417L45.1917 50.5833L46.1333 51.7583L48.95 53.4L49.2833 52.375L49.4167 51.9917L48.2417 51.0583L48.0083 50.1167L48.95 48.9417L49.1833 47.775L48.2417 45.9L46.6 44.725L44.725 44.9583L43.3167 46.8333L42.15 47.5417L40.2667 46.6L40.5083 44.9583L41.4417 43.3167L40.9083 42.875L40.0333 42.15L38.7833 44.2333L38.625 44.4917V47.0667Z" fill="black"/>
</svg>
